<?xml version="1.0" encoding="UTF-8"?>
<svg id="Ebene_1" xmlns="http://www.w3.org/2000/svg" version="1.1" viewBox="0 0 1027.81 1021.83">
  <!-- Generator: Adobe Illustrator 30.6.0, SVG Export Plug-In . SVG Version: 2.1.4 Build 109)  -->
  <defs>
    <style>
      .st0 {
        fill: #1f602c;
      }
    </style>
  </defs>
  <path class="st0" d="M673.95.5c23.72-3.77,42.04,14.14,44.85,36.88,1.76,14.19-9.6,54.48,10.96,58.81,41.58,8.76,130.98-89.98,195.37-53.83,70.97,39.85-2.56,116.94-22.93,156.49-38.34,74.45,61.6,19.34,69.77,79.74,10.17,75.15-121.83,72.23-149.52,117.62-31.28,51.28,69.9,24.38,95.69,65.79,40.48,64.99-49.59,111.6-102.67,118.62-14.87,1.96-84.48,3.86-95.69,0-2.38-.82-13.57-20.69-18.94-22.93,47.34,5.54,182.81,9.17,201.35-49.84,25.25-80.36-115.76-21.95-107.65-101.67,6.45-63.38,148.39-73.55,155.5-113.63,7.36-41.52-71.42-12-79.74-57.81-8.88-48.84,102.18-129.73,46.85-170.45-52.24-38.44-158.92,84.56-207.33,45.85-28.2-22.55,1.87-93.55-31.9-87.72-34.9,6.03-83.82,162.52-149.52,171.44-97.37,13.23-1.88-146.99-91.7-141.54-111.69,6.77-53.64,235.06-109.64,267.13-74.6,42.73-52.41-115.32-107.65-83.73-54.27,31.03-.66,163.38,2.99,210.32,4.75,61.07-21.3,108.42-82.73,62.8-13.28-9.87-37.9-51.03-48.84-16.95-18.72,58.34,49.54,170.18,39.87,247.2-7,55.7-78.57,108.4-107.65,155.5l22.93,22.93c32.07-40.73,71.12-113.08,119.61-133.57,32.47-13.72,92.66-19.43,127.59-15.95,21.85,2.18,30.35.7,30.9,24.92l-88.71-2.99c-59.67,5.25-80.17,21.68-116.62,64.79-10.64,12.58-63.53,90.29-68.78,92.7-30.23,13.91-55.73-30.32-48.84-56.82,6.42-24.7,75.18-87.85,91.7-113.63,57.02-88.99-53.52-212.22-21.93-295.04,4.95-12.97,22.19-28.3,36.88-26.91,19.97,1.88,80.41,86.79,92.7,30.9,13.25-60.25-41.92-150.02-23.92-221.28,11.8-46.74,63.35-81.92,95.69-29.9,11.01,17.7,23.21,105.61,53.83,53.83,19.61-33.16.87-137.69,33.89-201.35,32.57-62.78,125.38-86.36,141.54-3.99,6.65,33.92-21.21,115.26,40.87,80.74C587.25,139.02,628.31,7.75,673.95.5ZM20.07,915.54l9.97,15.95c5.98.52-3.86-18.55-9.97-15.95Z"/>
  <path class="st0" d="M901.22,88.22l-192.38,190.38,138.55,14.95-145.53-5.98c-17.54,9.02-101.12,84.12-111.64,85.72-2.92.44-16.64-7.59-16.95-8.97-1.46-6.72,73.51-53.08,79.74-63.79,22.14-38.05,1.22-122.7,8.97-166.46l17.94,145.53,221.28-191.38Z"/>
  <path class="st0" d="M416.79,169.95c-4.44,93.73,34.02,179.26,46.85,270.12l3.99,1.99,19.94-15.95c-4.23,10.37-1.06,35.78-3.99,43.86-2.61,7.21-46.29,18.1-56.82,22.93-16.7,7.66-31.87,18.94-47.84,27.91l64.79-56.82c-.2-98.94-42.58-194.07-26.91-294.05Z"/>
  <path class="st0" d="M513.47,991.29c6.89,4.31,5.82,5,13.95,0,302.2-6.24,519.64-284.19,462.5-581.12-2.55-13.24-19.91-56.95-19.94-63.79-.05-10.89,15.96-18.65,18.94-28.91,168.59,413.14-240.61,828.27-659.86,669.83-39.21-14.82-163.41-86-182.41-120.61-6.74-12.28,6.97-16.83,14.95-26.91,88.9,96.57,219.58,155.24,351.86,151.51Z"/>
  <path class="st0" d="M527.43,991.29c-8.14,5-7.06,4.31-13.95,0-6.98-4.37-18.77-22.09-30.9-29.9-24.33-15.67-57.19-22.76-81.74-41.86-65.77-51.2-66.62-148.84-56.82-224.27-88.12-16.71,1.1-123.48,36.88-152.51,34.17-27.72,77.09-44.99,120.61-50.84-4.3-18.65,9.65-115.57,26.91-120.61,12.17-3.55,55.36,16.59,58.81,28.91,3.54,12.64-12.73,26.48-17.94,37.88-3.97,8.67-21.6,49.33-17.94,55.82,67.02,15.28,135.65,58.38,169.45,119.61,21.3,38.57,26.77,66.25-21.93,83.73,10.52,75.51,6.85,177.76-60.8,226.27-25.58,18.34-61.53,25.02-85.72,41.86-7.71,5.36-18.88,22.21-24.92,25.92ZM538.39,391.24c-12.42,10.81-23.65,97.48-13.95,101.67l42.86-86.72-28.91-14.95ZM506.5,510.85c-60.82,3.51-128.03,47.87-160.48,98.68-8.3,12.99-32.96,52.92-12.96,62.8,10.27,5.07,83.18,7.36,99.68,7.97,58.21,2.16,125.21,2.23,183.41,0,80.03-3.07,142.64,4.43,66.78-86.72-40.41-48.55-112.4-86.43-176.43-82.73ZM364.96,696.25c-12.02,73.24-11.65,169.33,57.81,215.3,30.42,20.13,71.9,25.18,95.69,55.82,31.12-31.99,80.06-36.83,113.63-63.79,55.82-44.83,59-142.56,45.85-207.33h-312.99Z"/>
  <path class="st0" d="M275.25,419.15l52.83,136.56c6.37,10.67,13.93-14.44,19.94-5.98-23.36,22.33-41,50.14-53.83,79.74l-170.45,144.53c60.06-69.24,123.78-135.39,190.38-198.36-14.3-51.78-32.28-102.96-38.87-156.49Z"/>
  <path class="st0" d="M580.26,474.97l202.34,34.89c-69.09,2.07-137.9-9.23-204.34-26.91l1.99-7.97Z"/>
  <path class="st0" d="M524.44,526.8c4.04,4.8-12.96,17.79-12.96,18.94,0,1.98,26.94,27.07,28.91,26.91,1.83-.15,22.7-22.31,26.91-24.92l-6.98-12.96c9.45,16.95,17.74,3.01,19.94,3.99,4.13,1.85-3.91,6.14-2.99,8.97,3.51,10.88,34.16,35.31,42.86,14.95.96,4.33-10.97,14.02-10.96,14.95,0,1.99,26.93,27.07,28.91,26.91,1.51-.12,13.29-15.14,17.94-15.95,1.88,7.59-15.7,15.35-14.95,20.93.24,1.82,24.99,24.78,26.91,24.92,7.01.49,12.6-11.76,18.94-12.96,1.85,6.25-13.95,15.74-13.95,17.94,0,2.33,15.55,11.07,12.96,16.95-19.84-20.14-20.41-6.27-39.87,3.99l18.94-20.93c-29.27-30.68-28.52-28.61-57.81,0l20.93,22.93c-26.84-16.07-20.08-22.82-47.84-1.99l18.94-20.93c-4.19-2.63-25.09-24.73-26.91-24.92-2.87-.3-25.05,21.22-28.91,24.92l20.93,22.93c-6.15,1.02-24.07-17.82-25.92-17.94-2.68-.18-21.9,19.26-27.91,19.94l22.93-24.92c-3.86-3.58-24.08-24.62-26.91-24.92-2.86-.3-24.83,21.56-28.91,24.92l18.94,22.93c-27.39-22.78-21.9-17.4-49.84,0l20.93-22.93c-27.68-31.48-27.6-27.42-55.82,0l20.93,22.93c-6.21.65-22.44-17.76-23.92-17.94-4.64-.56-19.81,16.56-25.92,17.94l20.93-22.93c-4.08-2.72-20.7-22.52-22.93-22.93-4.46-.82-26.73,21.17-26.91,22.93-.56,5.38,17.81,15.04,16.95,22.93l-22.93-20.93c-.5-4.8,25.63-25.17,25.92-27.91.38-3.58-6.34-7.44-5.98-7.97,2.55-3.81,9.88,2.07,12.96,1,1.66-.58,24.92-23.16,24.92-24.92,0-1.43-8.46-5.19-4.98-8.97,12.33,16.96,32.57-22.53,41.86-23.92,6.66-1,25.73,24.57,31.9,23.92,1.96-.21,28.9-24.94,28.91-26.91,0-2.1-11.73-8.65-10.96-12.96,18.55,14.17,17.03,8.89,31.9-5.98ZM504.5,550.72l-26.91,26.91c5.07,2.4,26.93,26.91,28.91,26.91s27.53-25.53,26.91-28.91l-28.91-24.92ZM570.29,550.72l-26.91,26.91c5.71,1.84,26.93,26.91,28.91,26.91s27.23-23.87,26.91-26.91l-28.91-26.91ZM442.7,552.71l-26.91,26.91c23.98,35.23,28.72,23.9,53.83-1.99l-26.91-24.92ZM472.61,582.62c-1.89.2-23.48,23.33-26.91,26.91,4.3,2.86,25.01,26.91,26.91,26.91s25.13-23.66,28.91-26.91c-5.03-3.61-24.63-27.36-28.91-26.91ZM538.39,582.62c-1.89.2-27.16,24.5-26.91,26.91,26.69,30.97,28.36,28.8,55.82,0-5.03-3.61-24.63-27.36-28.91-26.91ZM604.18,582.62c-2.62-.16-27.23,23.84-26.91,26.91,26.4,30.36,29.33,30.46,53.83-1.99-3.56-3.5-24.54-24.78-26.91-24.92ZM410.81,584.61c-2.69-.16-23.17,21.44-26.91,24.92l24.92,26.91,26.91-26.91c-3.98-2.73-23.16-24.82-24.92-24.92Z"/>
  <path class="st0" d="M384.89,720.17c1.26-.5,22.58,3.5,26.91,2.99-6.46,64.2-5.2,129.05,40.87,178.42-52.74-20.01-70.69-73.99-72.76-126.59-.3-7.7-.58-52.62,4.98-54.82Z"/>
</svg>